<svg id="Capa_1" enable-background="new 0 0 512 512" height="512" viewBox="0 0 512 512" width="512" xmlns="http://www.w3.org/2000/svg"><g><path d="m256 0-20.016 256 20.016 256c141.385 0 256-114.615 256-256s-114.615-256-256-256z" fill="#ebebf0"/><path d="m0 256c0 141.385 114.615 256 256 256v-512c-141.385 0-256 114.615-256 256z" fill="#fff5f5"/><path d="m256 75-20.016 181 20.016 181c99.804 0 181-81.196 181-181s-81.196-181-181-181z" fill="#ebebf0"/><path d="m75 256c0 99.804 81.196 181 181 181v-362c-99.804 0-181 81.196-181 181z" fill="#fff5f5"/><path d="m287.782 155.214-31.782-31.782-21.804 69.683 21.804 69.682 51.639-67.54c-1.98-14.646-8.6-28.786-19.857-40.043z" fill="#009986"/><path d="m224.218 155.214c-11.258 11.258-17.877 25.398-19.858 40.045l51.64 67.538v-139.365z" fill="#00cc76"/><path d="m323.726 192.833c-30.471 0-56.605 18.557-67.726 44.985l-19.917 38.335 19.917 37.313h41.462c40.564 0 73.448-32.884 73.448-73.448v-47.185z" fill="#00cc76"/><path d="m188.274 192.833h-47.184v47.185c0 40.564 32.884 73.448 73.448 73.448h41.462v-75.648c-11.121-26.428-37.255-44.985-67.726-44.985z" fill="#a5e887"/><path d="m256 262.797-21.804 166.358h81.555l14.033-78.142c8.256-45.97-27.079-88.216-73.784-88.216z" fill="#ff7c48"/><path d="m256 262.797c-46.705 0-82.04 42.246-73.784 88.216l14.033 78.142h59.751z" fill="#ffb655"/><path d="m256 60-10.008 15 10.008 15c91.533 0 166 74.467 166 166s-74.467 166-166 166l-10.008 15 10.008 15c108.075 0 196-87.925 196-196s-87.925-196-196-196z" fill="#cde1e6"/><path d="m90 256c0-91.533 74.467-166 166-166v-30c-108.075 0-196 87.925-196 196s87.925 196 196 196v-30c-91.533 0-166-74.467-166-166z" fill="#ebebf0"/></g></svg>